<svg width="24" height="24" viewBox="0 0 24 24" fill="none" xmlns="http://www.w3.org/2000/svg">
<g clip-path="url(#clip0_1348_3172)">
<path d="M10.2502 5H4.75024C4.33624 5 4.00024 4.664 4.00024 4.25C4.00024 3.836 4.33624 3.5 4.75024 3.5H10.2502C10.6642 3.5 11.0002 3.836 11.0002 4.25C11.0002 4.664 10.6642 5 10.2502 5Z" fill="white"/>
<path d="M10.2502 8.5H4.75024C4.33624 8.5 4.00024 8.164 4.00024 7.75C4.00024 7.336 4.33624 7 4.75024 7H10.2502C10.6642 7 11.0002 7.336 11.0002 7.75C11.0002 8.164 10.6642 8.5 10.2502 8.5Z" fill="white"/>
<path d="M18.4998 17.5C16.8458 17.5 15.4998 16.154 15.4998 14.5C15.4998 12.846 16.8458 11.5 18.4998 11.5C20.1538 11.5 21.4998 12.846 21.4998 14.5C21.4998 16.154 20.1538 17.5 18.4998 17.5ZM18.4998 13C17.6728 13 16.9998 13.673 16.9998 14.5C16.9998 15.327 17.6728 16 18.4998 16C19.3268 16 19.9998 15.327 19.9998 14.5C19.9998 13.673 19.3268 13 18.4998 13Z" fill="white"/>
<path d="M23.2502 24C22.8362 24 22.5002 23.664 22.5002 23.25V21.75C22.5002 21.061 21.9392 20.5 21.2502 20.5H15.7502C15.0612 20.5 14.5002 21.061 14.5002 21.75V23.25C14.5002 23.664 14.1642 24 13.7502 24C13.3362 24 13.0002 23.664 13.0002 23.25V21.75C13.0002 20.233 14.2332 19 15.7502 19H21.2502C22.7672 19 24.0002 20.233 24.0002 21.75V23.25C24.0002 23.664 23.6642 24 23.2502 24Z" fill="white"/>
<path d="M11.25 16C11.065 16 10.883 15.932 10.741 15.801L7.707 13H2.75C1.233 13 0 11.767 0 10.25V2.75C0 1.233 1.233 0 2.75 0H12.25C13.767 0 15 1.233 15 2.75V10.25C15 11.767 13.767 13 12.25 13H12V15.25C12 15.548 11.823 15.817 11.551 15.938C11.454 15.979 11.352 16 11.25 16ZM2.75 1.5C2.061 1.5 1.5 2.061 1.5 2.75V10.25C1.5 10.939 2.061 11.5 2.75 11.5H8C8.188 11.5 8.37 11.571 8.509 11.699L10.5 13.537V12.25C10.5 11.836 10.836 11.5 11.25 11.5H12.25C12.939 11.5 13.5 10.939 13.5 10.25V2.75C13.5 2.061 12.939 1.5 12.25 1.5H2.75Z" fill="white"/>
<path d="M3.99975 19C2.89675 19 1.99976 18.103 1.99976 17C1.99976 15.897 2.89675 15 3.99975 15C5.10275 15 5.99975 15.897 5.99975 17C5.99975 18.103 5.10275 19 3.99975 19ZM3.99975 16.5C3.72475 16.5 3.49975 16.725 3.49975 17C3.49975 17.275 3.72475 17.5 3.99975 17.5C4.27475 17.5 4.49975 17.275 4.49975 17C4.49975 16.725 4.27475 16.5 3.99975 16.5Z" fill="white"/>
<path d="M7.25 24C6.836 24 6.5 23.664 6.5 23.25V22.75C6.5 22.061 5.939 21.5 5.25 21.5H2.75C2.061 21.5 1.5 22.061 1.5 22.75V23.25C1.5 23.664 1.164 24 0.75 24C0.336 24 0 23.664 0 23.25V22.75C0 21.233 1.233 20 2.75 20H5.25C6.767 20 8 21.233 8 22.75V23.25C8 23.664 7.664 24 7.25 24Z" fill="white"/>
</g>
<defs>
<clipPath id="clip0_1348_3172">
<rect width="24" height="24" fill="white"/>
</clipPath>
</defs>
</svg>
