<svg width="24" height="24" viewBox="0 0 24 24" fill="none" xmlns="http://www.w3.org/2000/svg">
<g clip-path="url(#clip0_1348_3159)">
<path d="M10.2495 4H5.74951C4.78451 4 3.99951 3.215 3.99951 2.25C3.99951 1.837 3.66351 1.5 3.24951 1.5H2.74951C2.33551 1.5 1.99951 1.164 1.99951 0.75C1.99951 0.336 2.33551 0 2.74951 0H3.24951C4.49051 0 5.49951 1.01 5.49951 2.25C5.49951 2.388 5.61151 2.5 5.74951 2.5H10.2495C10.3875 2.5 10.4995 2.388 10.4995 2.25C10.4995 1.01 11.5085 0 12.7495 0H13.2495C13.6635 0 13.9995 0.336 13.9995 0.75C13.9995 1.164 13.6635 1.5 13.2495 1.5H12.7495C12.3355 1.5 11.9995 1.837 11.9995 2.25C11.9995 3.215 11.2145 4 10.2495 4Z" fill="#44CC88"/>
<path d="M13.25 24H2.75C1.233 24 0 22.767 0 21.25V2.75C0 1.233 1.233 0 2.75 0H13.25C14.767 0 16 1.233 16 2.75V4.25C16 4.664 15.664 5 15.25 5C14.836 5 14.5 4.664 14.5 4.25V2.75C14.5 2.061 13.939 1.5 13.25 1.5H2.75C2.061 1.5 1.5 2.061 1.5 2.75V21.25C1.5 21.939 2.061 22.5 2.75 22.5H13.25C13.939 22.5 14.5 21.939 14.5 21.25V17.75C14.5 17.336 14.836 17 15.25 17C15.664 17 16 17.336 16 17.75V21.25C16 22.767 14.767 24 13.25 24Z" fill="#44CC88"/>
<path d="M8 19C6.897 19 6 18.103 6 17C6 15.897 6.897 15 8 15C9.10299 15 9.99999 15.897 9.99999 17C9.99999 18.103 9.10299 19 8 19ZM8 16.5C7.724 16.5 7.5 16.725 7.5 17C7.5 17.275 7.724 17.5 8 17.5C8.276 17.5 8.5 17.275 8.5 17C8.5 16.725 8.276 16.5 8 16.5Z" fill="#44CC88"/>
<path d="M11.2505 24C10.8365 24 10.5005 23.664 10.5005 23.25V22.75C10.5005 22.061 9.93949 21.5 9.25049 21.5H6.75049C6.06149 21.5 5.50049 22.061 5.50049 22.75V23.25C5.50049 23.664 5.16449 24 4.75049 24C4.33649 24 4.00049 23.664 4.00049 23.25V22.75C4.00049 21.233 5.23349 20 6.75049 20H9.25049C10.7675 20 12.0005 21.233 12.0005 22.75V23.25C12.0005 23.664 11.6645 24 11.2505 24Z" fill="#44CC88"/>
<path d="M23.25 15C23.091 15 22.932 14.949 22.8 14.85L20.984 13.489C20.868 14.341 20.134 15 19.25 15H13.75C12.785 15 12 14.215 12 13.25V8.49999C12 7.80799 12.458 6.99999 13.75 6.99999H19.25C20.182 6.99999 20.946 7.73199 20.997 8.65099L22.77 7.17299C22.993 6.98699 23.304 6.94499 23.568 7.06999C23.832 7.19399 24 7.45899 24 7.74999V14.25C24 14.534 23.839 14.794 23.585 14.921C23.479 14.974 23.364 15 23.25 15ZM13.75 8.49999C13.566 8.49999 13.474 8.53299 13.454 8.54499L13.5 13.25C13.5 13.388 13.612 13.5 13.75 13.5H19.25C19.388 13.5 19.5 13.388 19.5 13.25V12C19.5 11.716 19.661 11.456 19.915 11.329C20.169 11.204 20.474 11.229 20.701 11.4L22.501 12.75V9.35199L20.731 10.827C20.507 11.013 20.195 11.054 19.933 10.93C19.67 10.807 19.501 10.542 19.501 10.251V8.75099C19.501 8.61299 19.389 8.50099 19.251 8.50099H13.75V8.49999Z" fill="#44CC88"/>
</g>
<defs>
<clipPath id="clip0_1348_3159">
<rect width="24" height="24" fill="white"/>
</clipPath>
</defs>
</svg>
